M48
; DRILL file {KiCad 5.99.0-unknown-5db75805bd~106~ubuntu20.04.1} date Tue Jan  5 12:39:30 2021
; FORMAT={-:-/ absolute / inch / decimal}
; #@! TF.CreationDate,2021-01-05T12:39:30+10:00
; #@! TF.GenerationSoftware,Kicad,Pcbnew,5.99.0-unknown-5db75805bd~106~ubuntu20.04.1
; #@! TF.FileFunction,NonPlated,1,2,NPTH
FMAT,2
INCH
T1C0.0197
T2C0.1339
%
G90
G05
T1
X0.1083Y-2.0571
X0.1083Y-2.1161
X0.1378Y-2.0571
X0.1378Y-2.1161
X0.1673Y-2.0571
X0.1673Y-2.1161
X0.1969Y-2.0571
X0.1969Y-2.1161
X0.2264Y-2.0571
X0.2264Y-2.1161
X0.2559Y-2.0571
X0.2559Y-2.1161
X0.2854Y-2.0571
X0.2854Y-2.1161
X4.0256Y-2.0571
X4.0256Y-2.1161
X4.0551Y-2.0571
X4.0551Y-2.1161
X4.0846Y-2.0571
X4.0846Y-2.1161
X4.1142Y-2.0571
X4.1142Y-2.1161
X4.1437Y-2.0571
X4.1437Y-2.1161
X4.1732Y-2.0571
X4.1732Y-2.1161
X4.2028Y-2.0571
X4.2028Y-2.1161
X7.9429Y-2.0571
X7.9429Y-2.1161
X7.9724Y-2.0571
X7.9724Y-2.1161
X8.002Y-2.0571
X8.002Y-2.1161
X8.0315Y-2.0571
X8.0315Y-2.1161
X8.061Y-2.0571
X8.061Y-2.1161
X8.0906Y-2.0571
X8.0906Y-2.1161
X8.1201Y-2.0571
X8.1201Y-2.1161
T2
X-0.0211Y0.7073
X-0.0211Y-1.8518
X-0.0197Y-2.3228
X-0.0197Y-4.8819
X8.2466Y0.7073
X8.2466Y-1.8518
X8.248Y-2.3228
X8.248Y-4.8819
T0
M30
