%TF.GenerationSoftware,KiCad,Pcbnew,5.99.0-unknown-5db75805bd~106~ubuntu20.04.1*%
%TF.CreationDate,2021-01-05T12:39:39+10:00*%
%TF.ProjectId,panel_switch_piano_2up,70616e65-6c5f-4737-9769-7463685f7069,rev?*%
%TF.SameCoordinates,PX2faf080PY2160ec0*%
%TF.FileFunction,Profile,NP*%
%FSLAX46Y46*%
G04 Gerber Fmt 4.6, Leading zero omitted, Abs format (unit mm)*
G04 Created by KiCad (PCBNEW 5.99.0-unknown-5db75805bd~106~ubuntu20.04.1) date 2021-01-05 12:39:39*
%MOMM*%
%LPD*%
G01*
G04 APERTURE LIST*
%TA.AperFunction,Profile*%
%ADD10C,0.050000*%
%TD*%
G04 APERTURE END LIST*
D10*
X214428932Y17928932D02*
G75*
G03*
X209428932Y22928932I-5000000J0D01*
G01*
X-571068Y22928932D02*
X209428932Y22928932D01*
X-571068Y22928932D02*
G75*
G03*
X-5571068Y17928932I0J-5000000D01*
G01*
X214464466Y-47035534D02*
X214428932Y17928932D01*
X209464466Y-52035534D02*
G75*
G03*
X214464466Y-47035534I0J5000000D01*
G01*
X-5571068Y17928932D02*
X-5500000Y-47000000D01*
X-5500000Y-47000000D02*
G75*
G03*
X-500000Y-52000000I5000000J0D01*
G01*
X1500000Y-52000000D02*
G75*
G02*
X1500000Y-54000000I0J-1000000D01*
G01*
X8500000Y-52000000D02*
G75*
G03*
X8500000Y-54000000I0J-1000000D01*
G01*
X101000000Y-52000000D02*
G75*
G02*
X101000000Y-54000000I0J-1000000D01*
G01*
X108000000Y-54000000D02*
G75*
G02*
X108000000Y-52000000I0J1000000D01*
G01*
X200500000Y-54000000D02*
G75*
G03*
X200500000Y-52000000I0J1000000D01*
G01*
X207500000Y-52000000D02*
G75*
G03*
X207500000Y-54000000I0J-1000000D01*
G01*
X209464466Y-52035534D02*
X207500000Y-52000000D01*
X209464466Y-54035534D02*
X207500000Y-54000000D01*
X200500000Y-54000000D02*
X108000000Y-54000000D01*
X108000000Y-52000000D02*
X200500000Y-52000000D01*
X101000000Y-52000000D02*
X8500000Y-52000000D01*
X8500000Y-54000000D02*
X101000000Y-54000000D01*
X1500000Y-54000000D02*
X-500000Y-54000000D01*
X-500000Y-52000000D02*
X1500000Y-52000000D01*
X-5500000Y-59000000D02*
X-5464466Y-123964466D01*
X209535534Y-128964466D02*
X-464466Y-128964466D01*
X-500000Y-54000000D02*
G75*
G03*
X-5500000Y-59000000I0J-5000000D01*
G01*
X214464466Y-59035534D02*
G75*
G03*
X209464466Y-54035534I-5000000J0D01*
G01*
X-5464466Y-123964466D02*
G75*
G03*
X-464466Y-128964466I5000000J0D01*
G01*
X209535534Y-128964466D02*
G75*
G03*
X214535534Y-123964466I0J5000000D01*
G01*
X214535534Y-123964466D02*
X214464466Y-59035534D01*
M02*
