%TF.GenerationSoftware,KiCad,Pcbnew,5.99.0-unknown-5db75805bd~106~ubuntu20.04.1*%
%TF.CreationDate,2021-01-05T12:39:39+10:00*%
%TF.ProjectId,panel_switch_piano_2up,70616e65-6c5f-4737-9769-7463685f7069,rev?*%
%TF.SameCoordinates,PX2faf080PY2160ec0*%
%TF.FileFunction,Soldermask,Bot*%
%TF.FilePolarity,Negative*%
%FSLAX46Y46*%
G04 Gerber Fmt 4.6, Leading zero omitted, Abs format (unit mm)*
G04 Created by KiCad (PCBNEW 5.99.0-unknown-5db75805bd~106~ubuntu20.04.1) date 2021-01-05 12:39:39*
%MOMM*%
%LPD*%
G01*
G04 APERTURE LIST*
G04 Aperture macros list*
%AMRoundRect*
0 Rectangle with rounded corners*
0 $1 Rounding radius*
0 $2 $3 $4 $5 $6 $7 $8 $9 X,Y pos of 4 corners*
0 Add a 4 corners polygon primitive as box body*
4,1,4,$2,$3,$4,$5,$6,$7,$8,$9,$2,$3,0*
0 Add four circle primitives for the rounded corners*
1,1,$1+$1,$2,$3,0*
1,1,$1+$1,$4,$5,0*
1,1,$1+$1,$6,$7,0*
1,1,$1+$1,$8,$9,0*
0 Add four rect primitives between the rounded corners*
20,1,$1+$1,$2,$3,$4,$5,0*
20,1,$1+$1,$4,$5,$6,$7,0*
20,1,$1+$1,$6,$7,$8,$9,0*
20,1,$1+$1,$8,$9,$2,$3,0*%
G04 Aperture macros list end*
%ADD10C,3.400000*%
%ADD11RoundRect,0.250000X0.620000X0.845000X-0.620000X0.845000X-0.620000X-0.845000X0.620000X-0.845000X0*%
%ADD12O,1.740000X2.190000*%
%ADD13C,0.500000*%
%ADD14RoundRect,0.250000X-0.620000X-0.845000X0.620000X-0.845000X0.620000X0.845000X-0.620000X0.845000X0*%
G04 APERTURE END LIST*
D10*
%TO.C,H1*%
X-535534Y17964466D03*
%TD*%
%TO.C,H2*%
X209464466Y17964466D03*
%TD*%
%TO.C,H3*%
X209464466Y-47035534D03*
%TD*%
D11*
%TO.C,J2*%
X172144466Y-46035534D03*
D12*
X169604466Y-46035534D03*
X167064466Y-46035534D03*
X164524466Y-46035534D03*
X161984466Y-46035534D03*
X159444466Y-46035534D03*
%TD*%
D10*
%TO.C,H4*%
X-535534Y-47035534D03*
%TD*%
D11*
%TO.C,J1*%
X192464466Y-46035534D03*
D12*
X189924466Y-46035534D03*
X187384466Y-46035534D03*
X184844466Y-46035534D03*
X182304466Y-46035534D03*
%TD*%
D13*
%TO.C,mouse-bite-2mm-slot*%
X103750000Y-53750000D03*
X102250000Y-52250000D03*
X105250000Y-52250000D03*
X106000000Y-53750000D03*
X104500000Y-52250000D03*
X103000000Y-52250000D03*
X106750000Y-53750000D03*
X106750000Y-52250000D03*
X102250000Y-53750000D03*
X106000000Y-52250000D03*
X103000000Y-53750000D03*
X104500000Y-53750000D03*
X105250000Y-53750000D03*
X103750000Y-52250000D03*
%TD*%
%TO.C,mouse-bite-2mm-slot*%
X204000000Y-52250000D03*
X201750000Y-52250000D03*
X203250000Y-53750000D03*
X201750000Y-53750000D03*
X202500000Y-52250000D03*
X204750000Y-52250000D03*
X206250000Y-52250000D03*
X204000000Y-53750000D03*
X203250000Y-52250000D03*
X206250000Y-53750000D03*
X205500000Y-53750000D03*
X204750000Y-53750000D03*
X205500000Y-52250000D03*
X202500000Y-53750000D03*
%TD*%
%TO.C,mouse-bite-2mm-slot*%
X5000000Y-52250000D03*
X2750000Y-52250000D03*
X4250000Y-53750000D03*
X2750000Y-53750000D03*
X3500000Y-52250000D03*
X5750000Y-52250000D03*
X7250000Y-52250000D03*
X5000000Y-53750000D03*
X4250000Y-52250000D03*
X7250000Y-53750000D03*
X6500000Y-53750000D03*
X5750000Y-53750000D03*
X6500000Y-52250000D03*
X3500000Y-53750000D03*
%TD*%
D14*
%TO.C,J2*%
X36820000Y-60000000D03*
D12*
X39360000Y-60000000D03*
X41900000Y-60000000D03*
X44440000Y-60000000D03*
X46980000Y-60000000D03*
X49520000Y-60000000D03*
%TD*%
D10*
%TO.C,H1*%
X209500000Y-124000000D03*
%TD*%
%TO.C,H3*%
X-500000Y-59000000D03*
%TD*%
%TO.C,H4*%
X209500000Y-59000000D03*
%TD*%
D14*
%TO.C,J1*%
X16500000Y-60000000D03*
D12*
X19040000Y-60000000D03*
X21580000Y-60000000D03*
X24120000Y-60000000D03*
X26660000Y-60000000D03*
%TD*%
D10*
%TO.C,H2*%
X-500000Y-124000000D03*
%TD*%
M02*
