%TF.GenerationSoftware,KiCad,Pcbnew,5.99.0-unknown-5db75805bd~106~ubuntu20.04.1*%
%TF.CreationDate,2021-01-05T12:39:38+10:00*%
%TF.ProjectId,panel_switch_piano_2up,70616e65-6c5f-4737-9769-7463685f7069,rev?*%
%TF.SameCoordinates,PX2faf080PY2160ec0*%
%TF.FileFunction,Copper,L2,Bot*%
%TF.FilePolarity,Positive*%
%FSLAX46Y46*%
G04 Gerber Fmt 4.6, Leading zero omitted, Abs format (unit mm)*
G04 Created by KiCad (PCBNEW 5.99.0-unknown-5db75805bd~106~ubuntu20.04.1) date 2021-01-05 12:39:38*
%MOMM*%
%LPD*%
G01*
G04 APERTURE LIST*
G04 Aperture macros list*
%AMRoundRect*
0 Rectangle with rounded corners*
0 $1 Rounding radius*
0 $2 $3 $4 $5 $6 $7 $8 $9 X,Y pos of 4 corners*
0 Add a 4 corners polygon primitive as box body*
4,1,4,$2,$3,$4,$5,$6,$7,$8,$9,$2,$3,0*
0 Add four circle primitives for the rounded corners*
1,1,$1+$1,$2,$3,0*
1,1,$1+$1,$4,$5,0*
1,1,$1+$1,$6,$7,0*
1,1,$1+$1,$8,$9,0*
0 Add four rect primitives between the rounded corners*
20,1,$1+$1,$2,$3,$4,$5,0*
20,1,$1+$1,$4,$5,$6,$7,0*
20,1,$1+$1,$6,$7,$8,$9,0*
20,1,$1+$1,$8,$9,$2,$3,0*%
G04 Aperture macros list end*
%TA.AperFunction,ComponentPad*%
%ADD10RoundRect,0.250000X0.620000X0.845000X-0.620000X0.845000X-0.620000X-0.845000X0.620000X-0.845000X0*%
%TD*%
%TA.AperFunction,ComponentPad*%
%ADD11O,1.740000X2.190000*%
%TD*%
%TA.AperFunction,ComponentPad*%
%ADD12RoundRect,0.250000X-0.620000X-0.845000X0.620000X-0.845000X0.620000X0.845000X-0.620000X0.845000X0*%
%TD*%
%TA.AperFunction,ViaPad*%
%ADD13C,0.600000*%
%TD*%
%TA.AperFunction,Conductor*%
%ADD14C,0.500000*%
%TD*%
%TA.AperFunction,Conductor*%
%ADD15C,0.250000*%
%TD*%
%TA.AperFunction,Conductor*%
%ADD16C,1.000000*%
%TD*%
G04 APERTURE END LIST*
D10*
%TO.P,J2,1,Pin_1*%
%TO.N,+3V3*%
X172144466Y-46035534D03*
D11*
%TO.P,J2,2,Pin_2*%
%TO.N,/keys/I2C_SDA_1*%
X169604466Y-46035534D03*
%TO.P,J2,3,Pin_3*%
%TO.N,/I2C_SCL*%
X167064466Y-46035534D03*
%TO.P,J2,4,Pin_4*%
%TO.N,/IRQ1*%
X164524466Y-46035534D03*
%TO.P,J2,5,Pin_5*%
%TO.N,/IRQ2*%
X161984466Y-46035534D03*
%TO.P,J2,6,Pin_6*%
%TO.N,GND*%
X159444466Y-46035534D03*
%TD*%
D10*
%TO.P,J1,1,Pin_1*%
%TO.N,+5V*%
X192464466Y-46035534D03*
D11*
%TO.P,J1,2,Pin_2*%
X189924466Y-46035534D03*
%TO.P,J1,3,Pin_3*%
%TO.N,Net-(J1-Pad3)*%
X187384466Y-46035534D03*
%TO.P,J1,4,Pin_4*%
%TO.N,GND*%
X184844466Y-46035534D03*
%TO.P,J1,5,Pin_5*%
X182304466Y-46035534D03*
%TD*%
D12*
%TO.P,J2,1,Pin_1*%
%TO.N,+3V3*%
X36820000Y-60000000D03*
D11*
%TO.P,J2,2,Pin_2*%
%TO.N,/keys/I2C_SDA_1*%
X39360000Y-60000000D03*
%TO.P,J2,3,Pin_3*%
%TO.N,/I2C_SCL*%
X41900000Y-60000000D03*
%TO.P,J2,4,Pin_4*%
%TO.N,/IRQ1*%
X44440000Y-60000000D03*
%TO.P,J2,5,Pin_5*%
%TO.N,/IRQ2*%
X46980000Y-60000000D03*
%TO.P,J2,6,Pin_6*%
%TO.N,GND*%
X49520000Y-60000000D03*
%TD*%
D12*
%TO.P,J1,1,Pin_1*%
%TO.N,+5V*%
X16500000Y-60000000D03*
D11*
%TO.P,J1,2,Pin_2*%
X19040000Y-60000000D03*
%TO.P,J1,3,Pin_3*%
%TO.N,Net-(J1-Pad3)*%
X21580000Y-60000000D03*
%TO.P,J1,4,Pin_4*%
%TO.N,GND*%
X24120000Y-60000000D03*
%TO.P,J1,5,Pin_5*%
X26660000Y-60000000D03*
%TD*%
D13*
%TO.N,+5V*%
X127004466Y-8095534D03*
X43004466Y-15595534D03*
%TO.N,/keys/I2C_SDA_1*%
X169604466Y-39595534D03*
%TO.N,+5V*%
X155004466Y-8095534D03*
%TO.N,Net-(SW20-Pad2)*%
X48204466Y-18295534D03*
%TO.N,GND*%
X194464466Y-40035534D03*
%TO.N,Net-(U26-Pad19)*%
X81204466Y-20195534D03*
%TO.N,Net-(SW17-Pad2)*%
X67304466Y-18995534D03*
%TO.N,Net-(SW24-Pad2)*%
X11204466Y-22095534D03*
%TO.N,Net-(SW13-Pad2)*%
X95204466Y-20095534D03*
%TO.N,Net-(SW9-Pad2)*%
X130254466Y-845534D03*
%TO.N,+5V*%
X127004466Y-15595534D03*
%TO.N,+3V3*%
X131504466Y-29395534D03*
%TO.N,Net-(SW8-Pad2)*%
X139004466Y-20595534D03*
%TO.N,/I2C_SCL*%
X129654446Y-26909130D03*
%TO.N,+5V*%
X134004466Y-15595534D03*
%TO.N,Net-(SW18-Pad2)*%
X60304466Y-18295534D03*
%TO.N,Net-(U26-Pad19)*%
X81254466Y12954466D03*
%TO.N,Net-(SW5-Pad2)*%
X165604466Y-20195534D03*
%TO.N,+5V*%
X71004466Y-8095534D03*
X78004466Y-15595534D03*
%TO.N,Net-(SW3-Pad2)*%
X179204466Y-20195534D03*
%TO.N,+5V*%
X98904466Y-49415574D03*
%TO.N,Net-(SW12-Pad2)*%
X109304466Y-20195534D03*
%TO.N,Net-(SW8-Pad2)*%
X137254466Y12854466D03*
%TO.N,+5V*%
X162004466Y-15595534D03*
%TO.N,Net-(SW21-Pad2)*%
X32254466Y-1145534D03*
%TO.N,+5V*%
X98904466Y-41595534D03*
X134004466Y-8095534D03*
X190004466Y-15595534D03*
X113004466Y-8095534D03*
%TO.N,Net-(SW20-Pad2)*%
X39254466Y12954466D03*
%TO.N,Net-(SW11-Pad2)*%
X116254466Y-1045534D03*
%TO.N,+5V*%
X183004466Y-15595534D03*
X141004466Y-15595534D03*
X43004466Y-8095534D03*
%TO.N,Net-(SW4-Pad2)*%
X172254466Y-1045534D03*
%TO.N,+3V3*%
X151704466Y-39295534D03*
%TO.N,+5V*%
X63904466Y-41595534D03*
X49904466Y-41595534D03*
%TO.N,/I2C_SCL*%
X167104466Y-39595534D03*
%TO.N,Net-(SW13-Pad2)*%
X95254466Y12954466D03*
%TO.N,GND*%
X201964466Y-19535534D03*
%TO.N,/keys/I2C_SDA_1*%
X51404466Y-24800534D03*
%TO.N,+5V*%
X14904466Y-49415574D03*
X190004466Y-8095534D03*
%TO.N,Net-(SW2-Pad2)*%
X186254466Y-1045534D03*
%TO.N,+5V*%
X183004466Y-8095534D03*
%TO.N,Net-(SW23-Pad2)*%
X18254466Y-1145534D03*
%TO.N,+5V*%
X99004466Y-8095534D03*
X169004466Y-15595534D03*
%TO.N,/I2C_SCL*%
X50604466Y-24800534D03*
%TO.N,+5V*%
X141004466Y-8095534D03*
%TO.N,Net-(SW6-Pad2)*%
X158254466Y-1145534D03*
%TO.N,+5V*%
X85004466Y-15595534D03*
%TO.N,/LED_DIN*%
X198704466Y-14095534D03*
%TO.N,Net-(SW19-Pad2)*%
X50204466Y-18195534D03*
X53254466Y12954466D03*
%TO.N,+5V*%
X88404466Y-49415574D03*
X197004466Y-15595534D03*
X49904466Y-49415574D03*
X63904466Y-49415574D03*
X92004466Y-15595534D03*
X85004466Y-8095534D03*
%TO.N,Net-(SW1-Pad2)*%
X193204466Y-19995534D03*
%TO.N,Net-(SW23-Pad2)*%
X18304466Y-19295534D03*
%TO.N,/LED_DIN*%
X197204466Y-21595534D03*
%TO.N,GND*%
X134964466Y-21035534D03*
%TO.N,+5V*%
X120004466Y-8095534D03*
X36004466Y-15595534D03*
%TO.N,+3V3*%
X125454466Y-29445534D03*
%TO.N,Net-(SW1-Pad2)*%
X193254466Y12954466D03*
%TO.N,Net-(SW22-Pad2)*%
X25254466Y12954466D03*
%TO.N,Net-(SW5-Pad2)*%
X165254466Y12954466D03*
%TO.N,GND*%
X205464466Y-5535534D03*
%TO.N,Net-(SW7-Pad2)*%
X151304466Y-20095534D03*
%TO.N,Net-(U26-Pad18)*%
X88504466Y-20095534D03*
%TO.N,+5V*%
X169004466Y-8095534D03*
%TO.N,GND*%
X42704466Y-23195534D03*
%TO.N,Net-(SW4-Pad2)*%
X172304466Y-20295534D03*
%TO.N,+5V*%
X176004466Y-8095534D03*
X25404466Y-49415574D03*
X120004466Y-15595534D03*
X57004466Y-8095534D03*
X74404466Y-41595534D03*
%TO.N,GND*%
X174964466Y-47535534D03*
%TO.N,Net-(SW21-Pad2)*%
X46204466Y-18195534D03*
%TO.N,Net-(U26-Pad18)*%
X88254466Y-1045534D03*
%TO.N,Net-(SW9-Pad2)*%
X131604466Y-19495534D03*
%TO.N,+5V*%
X15004466Y-8095534D03*
%TO.N,Net-(SW11-Pad2)*%
X116304466Y-20195534D03*
%TO.N,Net-(U26-Pad20)*%
X74404466Y-20195534D03*
%TO.N,Net-(SW18-Pad2)*%
X60254466Y-1145534D03*
%TO.N,+5V*%
X78004466Y-8095534D03*
%TO.N,Net-(SW22-Pad2)*%
X25204466Y-18670534D03*
%TO.N,Net-(SW10-Pad2)*%
X123304466Y-20095534D03*
%TO.N,+5V*%
X162004466Y-8095534D03*
X36004466Y-8095534D03*
X29004466Y-15595534D03*
%TO.N,GND*%
X43904466Y-20695534D03*
%TO.N,+5V*%
X22004466Y-8095534D03*
X64004466Y-15595534D03*
X92004466Y-8095534D03*
%TO.N,Net-(SW12-Pad2)*%
X109254466Y12954466D03*
%TO.N,+5V*%
X15004466Y-15595534D03*
%TO.N,Net-(U26-Pad20)*%
X74254466Y-945534D03*
%TO.N,+5V*%
X25404466Y-41595534D03*
%TO.N,Net-(SW7-Pad2)*%
X151254466Y12854466D03*
%TO.N,+5V*%
X39404466Y-41595534D03*
X22004466Y-15595534D03*
%TO.N,Net-(SW3-Pad2)*%
X179254466Y12854466D03*
%TO.N,+5V*%
X99004466Y-15595534D03*
X57004466Y-15595534D03*
X88404466Y-41595534D03*
X197004466Y-8095534D03*
%TO.N,/keys/I2C_SDA_1*%
X128304466Y-25695534D03*
%TO.N,+5V*%
X113004466Y-15595534D03*
X64004466Y-8095534D03*
%TO.N,GND*%
X174464466Y-40535534D03*
%TO.N,Net-(SW6-Pad2)*%
X158304466Y-20195534D03*
%TO.N,Net-(SW24-Pad2)*%
X11254466Y12954466D03*
%TO.N,+5V*%
X14904466Y-41595534D03*
%TO.N,Net-(SW2-Pad2)*%
X186204466Y-20195534D03*
%TO.N,Net-(SW17-Pad2)*%
X67254466Y12954466D03*
%TO.N,+5V*%
X29004466Y-8095534D03*
X39404466Y-49415574D03*
X74404466Y-49415574D03*
%TO.N,Net-(SW10-Pad2)*%
X123254466Y12954466D03*
%TO.N,+5V*%
X155004466Y-15595534D03*
X71004466Y-15595534D03*
X176004466Y-15595534D03*
%TO.N,GND*%
X34500000Y-65500000D03*
X14500000Y-66000000D03*
X3500000Y-100500000D03*
X166260000Y-82840000D03*
X34000000Y-58500000D03*
X165060000Y-85340000D03*
X7000000Y-86500000D03*
X74000000Y-85000000D03*
%TO.N,+5V*%
X25960000Y-90440000D03*
X39960000Y-97940000D03*
X179960000Y-97940000D03*
X194060000Y-56619960D03*
X95960000Y-90440000D03*
X130960000Y-97940000D03*
X134560000Y-64440000D03*
X130960000Y-90440000D03*
X120560000Y-64440000D03*
X137960000Y-90440000D03*
X95960000Y-97940000D03*
X194060000Y-64440000D03*
X183560000Y-56619960D03*
X53960000Y-90440000D03*
X144960000Y-97940000D03*
X145060000Y-64440000D03*
X32960000Y-90440000D03*
X193960000Y-97940000D03*
X165960000Y-97940000D03*
X186960000Y-97940000D03*
X165960000Y-90440000D03*
X67960000Y-97940000D03*
X134560000Y-56619960D03*
X39960000Y-90440000D03*
X46960000Y-97940000D03*
X123960000Y-90440000D03*
X11960000Y-97940000D03*
X32960000Y-97940000D03*
X109960000Y-97940000D03*
X88960000Y-97940000D03*
X81960000Y-97940000D03*
X74960000Y-90440000D03*
X172960000Y-90440000D03*
X159060000Y-64440000D03*
X109960000Y-90440000D03*
X144960000Y-90440000D03*
X116960000Y-97940000D03*
X116960000Y-90440000D03*
X145060000Y-56619960D03*
X159060000Y-56619960D03*
X11960000Y-90440000D03*
X137960000Y-97940000D03*
X169560000Y-56619960D03*
X53960000Y-97940000D03*
X25960000Y-97940000D03*
X74960000Y-97940000D03*
X18960000Y-90440000D03*
X88960000Y-90440000D03*
X151960000Y-90440000D03*
X123960000Y-97940000D03*
X179960000Y-90440000D03*
X151960000Y-97940000D03*
X67960000Y-90440000D03*
X120560000Y-56619960D03*
X186960000Y-90440000D03*
X183560000Y-64440000D03*
X110060000Y-56619960D03*
X18960000Y-97940000D03*
X46960000Y-90440000D03*
X169560000Y-64440000D03*
X110060000Y-64440000D03*
X172960000Y-97940000D03*
X81960000Y-90440000D03*
X193960000Y-90440000D03*
%TO.N,+3V3*%
X77460000Y-76640000D03*
X83510000Y-76590000D03*
X57260000Y-66740000D03*
%TO.N,/I2C_SCL*%
X41860000Y-66440000D03*
X79310020Y-79126404D03*
X158360000Y-81235000D03*
%TO.N,Net-(SW1-Pad2)*%
X15760000Y-86040000D03*
X15710000Y-118990000D03*
%TO.N,Net-(SW2-Pad2)*%
X22710000Y-104990000D03*
X22760000Y-85840000D03*
%TO.N,Net-(SW3-Pad2)*%
X29710000Y-118890000D03*
X29760000Y-85840000D03*
%TO.N,Net-(SW4-Pad2)*%
X36660000Y-85740000D03*
X36710000Y-104990000D03*
%TO.N,Net-(SW5-Pad2)*%
X43360000Y-85840000D03*
X43710000Y-118990000D03*
%TO.N,Net-(SW6-Pad2)*%
X50660000Y-85840000D03*
X50710000Y-104890000D03*
%TO.N,Net-(SW7-Pad2)*%
X57710000Y-118890000D03*
X57660000Y-85940000D03*
%TO.N,Net-(SW8-Pad2)*%
X71710000Y-118890000D03*
X69960000Y-85440000D03*
%TO.N,Net-(SW9-Pad2)*%
X77360000Y-86540000D03*
X78710000Y-105190000D03*
%TO.N,Net-(SW10-Pad2)*%
X85710000Y-118990000D03*
X85660000Y-85940000D03*
%TO.N,Net-(SW11-Pad2)*%
X92710000Y-104990000D03*
X92660000Y-85840000D03*
%TO.N,/LED_DIN*%
X10260000Y-91940000D03*
X11760000Y-84440000D03*
%TO.N,/keys/I2C_SDA_1*%
X39360000Y-66440000D03*
X80660000Y-80340000D03*
X157560000Y-81235000D03*
%TO.N,Net-(SW12-Pad2)*%
X99660000Y-85840000D03*
X99710000Y-118990000D03*
%TO.N,Net-(SW13-Pad2)*%
X113710000Y-118990000D03*
X113760000Y-85940000D03*
%TO.N,Net-(SW22-Pad2)*%
X183760000Y-87365000D03*
X183710000Y-118990000D03*
%TO.N,Net-(SW23-Pad2)*%
X190710000Y-104890000D03*
X190660000Y-86740000D03*
%TO.N,Net-(SW24-Pad2)*%
X197710000Y-118990000D03*
X197760000Y-83940000D03*
%TO.N,Net-(U26-Pad18)*%
X120460000Y-85940000D03*
X120710000Y-104990000D03*
%TO.N,Net-(U26-Pad19)*%
X127760000Y-85840000D03*
X127710000Y-118990000D03*
%TO.N,Net-(U26-Pad20)*%
X134710000Y-105090000D03*
X134560000Y-85840000D03*
%TO.N,Net-(SW17-Pad2)*%
X141660000Y-87040000D03*
X141710000Y-118990000D03*
%TO.N,Net-(SW18-Pad2)*%
X148710000Y-104890000D03*
X148660000Y-87740000D03*
%TO.N,Net-(SW19-Pad2)*%
X155710000Y-118990000D03*
X158760000Y-87840000D03*
%TO.N,Net-(SW20-Pad2)*%
X160760000Y-87740000D03*
X169710000Y-118990000D03*
%TO.N,Net-(SW21-Pad2)*%
X162760000Y-87840000D03*
X176710000Y-104890000D03*
%TD*%
D14*
%TO.N,+5V*%
X141004466Y-15595534D02*
X141004466Y-8095534D01*
D15*
%TO.N,Net-(SW21-Pad2)*%
X32254466Y-13945534D02*
X32254466Y-1145534D01*
%TO.N,Net-(SW11-Pad2)*%
X116304466Y-1095534D02*
X116254466Y-1045534D01*
%TO.N,Net-(SW22-Pad2)*%
X25204466Y-18670534D02*
X25204466Y12904466D01*
%TO.N,/I2C_SCL*%
X50604466Y-24925551D02*
X50604466Y-24800534D01*
%TO.N,Net-(SW9-Pad2)*%
X131604466Y-19495534D02*
X131604466Y-2195534D01*
D14*
%TO.N,+5V*%
X43004466Y-15595534D02*
X43004466Y-8095534D01*
X22004466Y-15595534D02*
X22004466Y-8095534D01*
%TO.N,+3V3*%
X155404466Y-42995534D02*
X151704466Y-39295534D01*
D15*
%TO.N,Net-(SW12-Pad2)*%
X109304466Y12904466D02*
X109254466Y12954466D01*
%TO.N,Net-(SW9-Pad2)*%
X131604466Y-2195534D02*
X130254466Y-845534D01*
%TO.N,Net-(SW8-Pad2)*%
X139004466Y-20595534D02*
X139004466Y11104466D01*
X139004466Y11104466D02*
X137254466Y12854466D01*
%TO.N,Net-(SW5-Pad2)*%
X165604466Y-20195534D02*
X165604466Y12604466D01*
%TO.N,Net-(SW18-Pad2)*%
X60304466Y-1195534D02*
X60254466Y-1145534D01*
%TO.N,Net-(SW2-Pad2)*%
X186204466Y-20195534D02*
X186254466Y-20145534D01*
%TO.N,/keys/I2C_SDA_1*%
X51404466Y-24800534D02*
X127409466Y-24800534D01*
%TO.N,Net-(SW10-Pad2)*%
X123304466Y12904466D02*
X123254466Y12954466D01*
D14*
%TO.N,GND*%
X205464466Y-5535534D02*
X205464466Y-16035534D01*
D15*
X135149477Y-21220545D02*
X155149477Y-21220545D01*
%TO.N,/keys/I2C_SDA_1*%
X155704466Y-25695534D02*
X169604466Y-39595534D01*
%TO.N,Net-(U26-Pad19)*%
X81254466Y-20145534D02*
X81254466Y12954466D01*
%TO.N,Net-(U26-Pad18)*%
X88504466Y-1295534D02*
X88254466Y-1045534D01*
%TO.N,Net-(SW4-Pad2)*%
X172304466Y-20295534D02*
X172304466Y-1095534D01*
D14*
%TO.N,+5V*%
X99004466Y-15595534D02*
X99004466Y-8095534D01*
X162004466Y-15595534D02*
X162004466Y-8095534D01*
D16*
%TO.N,GND*%
X160704466Y-48495534D02*
X159404466Y-47195534D01*
D14*
%TO.N,+5V*%
X127004466Y-15595534D02*
X127004466Y-8095534D01*
D16*
%TO.N,GND*%
X184844466Y-42155534D02*
X184844466Y-46035534D01*
D15*
%TO.N,Net-(SW20-Pad2)*%
X39254466Y-13745534D02*
X39254466Y12954466D01*
D14*
%TO.N,+3V3*%
X131504466Y-29395534D02*
X125504466Y-29395534D01*
D15*
%TO.N,Net-(SW21-Pad2)*%
X46204466Y-18195534D02*
X36504466Y-18195534D01*
%TO.N,Net-(SW13-Pad2)*%
X95204466Y-20095534D02*
X95204466Y12904466D01*
%TO.N,Net-(SW24-Pad2)*%
X11204466Y12904466D02*
X11254466Y12954466D01*
%TO.N,Net-(SW12-Pad2)*%
X109304466Y-20195534D02*
X109304466Y12904466D01*
%TO.N,Net-(SW24-Pad2)*%
X11204466Y-22095534D02*
X11204466Y12904466D01*
%TO.N,Net-(U26-Pad19)*%
X81204466Y-20195534D02*
X81254466Y-20145534D01*
%TO.N,Net-(U26-Pad18)*%
X88504466Y-20095534D02*
X88504466Y-1295534D01*
%TO.N,Net-(SW19-Pad2)*%
X53254466Y-15145534D02*
X53254466Y12954466D01*
X50204466Y-18195534D02*
X53254466Y-15145534D01*
%TO.N,/I2C_SCL*%
X52588045Y-26909130D02*
X50604466Y-24925551D01*
D14*
%TO.N,GND*%
X140744466Y-46035534D02*
X159444466Y-46035534D01*
X43904466Y-20695534D02*
X50804466Y-27595534D01*
D15*
%TO.N,Net-(SW10-Pad2)*%
X123304466Y-20095534D02*
X123304466Y12904466D01*
%TO.N,GND*%
X174964466Y-47535534D02*
X174964466Y-48455534D01*
D14*
%TO.N,+5V*%
X92004466Y-15595534D02*
X92004466Y-8095534D01*
X183004466Y-15595534D02*
X183004466Y-8095534D01*
X85004466Y-15595534D02*
X85004466Y-8095534D01*
%TO.N,GND*%
X50804466Y-27595534D02*
X122304466Y-27595534D01*
%TO.N,+5V*%
X74404466Y-41595534D02*
X74404466Y-49415574D01*
D15*
%TO.N,GND*%
X155149477Y-21220545D02*
X174464466Y-40535534D01*
D14*
X122304466Y-27595534D02*
X140744466Y-46035534D01*
X205464466Y-16035534D02*
X201964466Y-19535534D01*
%TO.N,+3V3*%
X171704466Y-42995534D02*
X155404466Y-42995534D01*
D15*
%TO.N,GND*%
X174964466Y-48455534D02*
X175004466Y-48495534D01*
%TO.N,Net-(SW11-Pad2)*%
X116304466Y-20195534D02*
X116304466Y-1095534D01*
%TO.N,Net-(SW23-Pad2)*%
X18304466Y-1195534D02*
X18254466Y-1145534D01*
D14*
%TO.N,+5V*%
X155004466Y-15595534D02*
X155004466Y-8095534D01*
X64004466Y-15595534D02*
X64004466Y-8095534D01*
D15*
%TO.N,Net-(SW7-Pad2)*%
X151254466Y-20045534D02*
X151304466Y-20095534D01*
D14*
%TO.N,+5V*%
X29004466Y-15595534D02*
X29004466Y-8095534D01*
D15*
%TO.N,Net-(SW17-Pad2)*%
X67304466Y12904466D02*
X67254466Y12954466D01*
D14*
%TO.N,+5V*%
X25404466Y-41595534D02*
X25404466Y-49415574D01*
D15*
%TO.N,Net-(SW3-Pad2)*%
X179204466Y-20195534D02*
X179204466Y12804466D01*
%TO.N,Net-(U26-Pad20)*%
X74404466Y-20195534D02*
X74404466Y-1095534D01*
%TO.N,Net-(SW20-Pad2)*%
X46704466Y-16795534D02*
X42304466Y-16795534D01*
D14*
%TO.N,+3V3*%
X172144466Y-43435534D02*
X171704466Y-42995534D01*
D15*
%TO.N,Net-(SW6-Pad2)*%
X158304466Y-20195534D02*
X158304466Y-1195534D01*
%TO.N,/keys/I2C_SDA_1*%
X128304466Y-25695534D02*
X153804466Y-25695534D01*
%TO.N,Net-(U26-Pad20)*%
X74404466Y-1095534D02*
X74254466Y-945534D01*
%TO.N,/LED_DIN*%
X198704466Y-20095534D02*
X197204466Y-21595534D01*
%TO.N,Net-(SW5-Pad2)*%
X165604466Y12604466D02*
X165254466Y12954466D01*
D14*
%TO.N,+3V3*%
X125504466Y-29395534D02*
X125454466Y-29445534D01*
X172144466Y-46035534D02*
X172144466Y-43435534D01*
D15*
%TO.N,Net-(SW13-Pad2)*%
X95204466Y12904466D02*
X95254466Y12954466D01*
D14*
%TO.N,+5V*%
X98904466Y-41595534D02*
X98904466Y-49415574D01*
X15004466Y-15595534D02*
X15004466Y-8095534D01*
D15*
%TO.N,Net-(SW22-Pad2)*%
X25204466Y12904466D02*
X25254466Y12954466D01*
%TO.N,Net-(SW3-Pad2)*%
X179204466Y12804466D02*
X179254466Y12854466D01*
D16*
%TO.N,GND*%
X184844466Y-46035534D02*
X182304466Y-46035534D01*
D15*
%TO.N,Net-(SW21-Pad2)*%
X36504466Y-18195534D02*
X32254466Y-13945534D01*
%TO.N,/I2C_SCL*%
X153418062Y-26909130D02*
X154418062Y-26909130D01*
%TO.N,Net-(SW20-Pad2)*%
X42304466Y-16795534D02*
X39254466Y-13745534D01*
D14*
%TO.N,+5V*%
X113004466Y-15595534D02*
X113004466Y-8095534D01*
X88404466Y-41595534D02*
X88404466Y-49415574D01*
X134004466Y-15595534D02*
X134004466Y-8095534D01*
D15*
%TO.N,/keys/I2C_SDA_1*%
X153804466Y-25695534D02*
X155704466Y-25695534D01*
D14*
%TO.N,+5V*%
X176004466Y-15595534D02*
X176004466Y-8095534D01*
D15*
%TO.N,Net-(SW23-Pad2)*%
X18304466Y-19295534D02*
X18304466Y-1195534D01*
%TO.N,GND*%
X43904466Y-21995534D02*
X43904466Y-20695534D01*
D14*
%TO.N,+5V*%
X14904466Y-41595534D02*
X14904466Y-49415574D01*
D15*
%TO.N,/LED_DIN*%
X198704466Y-14095534D02*
X198704466Y-20095534D01*
%TO.N,Net-(SW2-Pad2)*%
X186254466Y-20145534D02*
X186254466Y-1045534D01*
D16*
%TO.N,GND*%
X194464466Y-40035534D02*
X186964466Y-40035534D01*
D14*
%TO.N,+5V*%
X71004466Y-15595534D02*
X71004466Y-8095534D01*
D16*
%TO.N,GND*%
X159404466Y-46075534D02*
X159444466Y-46035534D01*
X186964466Y-40035534D02*
X184844466Y-42155534D01*
D15*
%TO.N,/keys/I2C_SDA_1*%
X127409466Y-24800534D02*
X128304466Y-25695534D01*
%TO.N,Net-(SW6-Pad2)*%
X158304466Y-1195534D02*
X158254466Y-1145534D01*
D14*
%TO.N,+5V*%
X63904466Y-41595534D02*
X63904466Y-49415574D01*
D15*
%TO.N,Net-(SW20-Pad2)*%
X48204466Y-18295534D02*
X46704466Y-16795534D01*
D14*
%TO.N,+5V*%
X169004466Y-15595534D02*
X169004466Y-8095534D01*
D15*
%TO.N,Net-(SW1-Pad2)*%
X193204466Y-19995534D02*
X193254466Y-19945534D01*
%TO.N,Net-(SW7-Pad2)*%
X151254466Y12854466D02*
X151254466Y-20045534D01*
D14*
%TO.N,+5V*%
X190004466Y-15595534D02*
X190004466Y-8095534D01*
D15*
%TO.N,/I2C_SCL*%
X129654446Y-26909130D02*
X52588045Y-26909130D01*
X154418062Y-26909130D02*
X167104466Y-39595534D01*
%TO.N,GND*%
X134964466Y-21035534D02*
X135149477Y-21220545D01*
D16*
X179844466Y-48495534D02*
X175004466Y-48495534D01*
X159404466Y-47195534D02*
X159404466Y-46075534D01*
X175004466Y-48495534D02*
X160704466Y-48495534D01*
D14*
%TO.N,+5V*%
X49904466Y-41595534D02*
X49904466Y-49415574D01*
X120004466Y-15595534D02*
X120004466Y-8095534D01*
D15*
%TO.N,Net-(SW1-Pad2)*%
X193254466Y-19945534D02*
X193254466Y12954466D01*
D16*
%TO.N,GND*%
X182304466Y-46035534D02*
X179844466Y-48495534D01*
D14*
%TO.N,+5V*%
X36004466Y-15595534D02*
X36004466Y-8095534D01*
X39404466Y-41595534D02*
X39404466Y-49415574D01*
X57004466Y-15595534D02*
X57004466Y-8095534D01*
D15*
%TO.N,/I2C_SCL*%
X129654446Y-26909130D02*
X153418062Y-26909130D01*
D14*
%TO.N,+5V*%
X78004466Y-15595534D02*
X78004466Y-8095534D01*
D15*
%TO.N,Net-(SW17-Pad2)*%
X67304466Y-18995534D02*
X67304466Y12904466D01*
D14*
%TO.N,+5V*%
X197004466Y-15595534D02*
X197004466Y-8095534D01*
D15*
%TO.N,GND*%
X42704466Y-23195534D02*
X43904466Y-21995534D01*
%TO.N,Net-(SW18-Pad2)*%
X60304466Y-18295534D02*
X60304466Y-1195534D01*
%TO.N,Net-(SW4-Pad2)*%
X172304466Y-1095534D02*
X172254466Y-1045534D01*
%TO.N,GND*%
X165060000Y-84040000D02*
X165060000Y-85340000D01*
X34000000Y-57580000D02*
X33960000Y-57540000D01*
D16*
X24120000Y-63880000D02*
X24120000Y-60000000D01*
D15*
X73814989Y-84814989D02*
X53814989Y-84814989D01*
D16*
X49560000Y-59960000D02*
X49520000Y-60000000D01*
D14*
X3500000Y-100500000D02*
X3500000Y-90000000D01*
D16*
X26660000Y-60000000D02*
X29120000Y-57540000D01*
D15*
X34000000Y-58500000D02*
X34000000Y-57580000D01*
X166260000Y-82840000D02*
X165060000Y-84040000D01*
D16*
X22000000Y-66000000D02*
X24120000Y-63880000D01*
D14*
X3500000Y-90000000D02*
X7000000Y-86500000D01*
X158160000Y-78440000D02*
X86660000Y-78440000D01*
X86660000Y-78440000D02*
X68220000Y-60000000D01*
D16*
X48260000Y-57540000D02*
X49560000Y-58840000D01*
D14*
X68220000Y-60000000D02*
X49520000Y-60000000D01*
D16*
X33960000Y-57540000D02*
X48260000Y-57540000D01*
X49560000Y-58840000D02*
X49560000Y-59960000D01*
X29120000Y-57540000D02*
X33960000Y-57540000D01*
D15*
X74000000Y-85000000D02*
X73814989Y-84814989D01*
D14*
X165060000Y-85340000D02*
X158160000Y-78440000D01*
D16*
X14500000Y-66000000D02*
X22000000Y-66000000D01*
X24120000Y-60000000D02*
X26660000Y-60000000D01*
D15*
X53814989Y-84814989D02*
X34500000Y-65500000D01*
D14*
%TO.N,+5V*%
X88960000Y-90440000D02*
X88960000Y-97940000D01*
X74960000Y-90440000D02*
X74960000Y-97940000D01*
X144960000Y-90440000D02*
X144960000Y-97940000D01*
X18960000Y-90440000D02*
X18960000Y-97940000D01*
X39960000Y-90440000D02*
X39960000Y-97940000D01*
X95960000Y-90440000D02*
X95960000Y-97940000D01*
X11960000Y-90440000D02*
X11960000Y-97940000D01*
X145060000Y-64440000D02*
X145060000Y-56619960D01*
X169560000Y-64440000D02*
X169560000Y-56619960D01*
X32960000Y-90440000D02*
X32960000Y-97940000D01*
X193960000Y-90440000D02*
X193960000Y-97940000D01*
X172960000Y-90440000D02*
X172960000Y-97940000D01*
X130960000Y-90440000D02*
X130960000Y-97940000D01*
X109960000Y-90440000D02*
X109960000Y-97940000D01*
X46960000Y-90440000D02*
X46960000Y-97940000D01*
X110060000Y-64440000D02*
X110060000Y-56619960D01*
X186960000Y-90440000D02*
X186960000Y-97940000D01*
X194060000Y-64440000D02*
X194060000Y-56619960D01*
X183560000Y-64440000D02*
X183560000Y-56619960D01*
X179960000Y-90440000D02*
X179960000Y-97940000D01*
X67960000Y-90440000D02*
X67960000Y-97940000D01*
X53960000Y-90440000D02*
X53960000Y-97940000D01*
X120560000Y-64440000D02*
X120560000Y-56619960D01*
X165960000Y-90440000D02*
X165960000Y-97940000D01*
X159060000Y-64440000D02*
X159060000Y-56619960D01*
X137960000Y-90440000D02*
X137960000Y-97940000D01*
X134560000Y-64440000D02*
X134560000Y-56619960D01*
X123960000Y-90440000D02*
X123960000Y-97940000D01*
X116960000Y-90440000D02*
X116960000Y-97940000D01*
X25960000Y-90440000D02*
X25960000Y-97940000D01*
X81960000Y-90440000D02*
X81960000Y-97940000D01*
X151960000Y-90440000D02*
X151960000Y-97940000D01*
%TO.N,+3V3*%
X36820000Y-62600000D02*
X37260000Y-63040000D01*
X77460000Y-76640000D02*
X83460000Y-76640000D01*
X83460000Y-76640000D02*
X83510000Y-76590000D01*
X36820000Y-60000000D02*
X36820000Y-62600000D01*
X37260000Y-63040000D02*
X53560000Y-63040000D01*
X53560000Y-63040000D02*
X57260000Y-66740000D01*
D15*
%TO.N,/I2C_SCL*%
X79310020Y-79126404D02*
X55546404Y-79126404D01*
X158360000Y-81109983D02*
X158360000Y-81235000D01*
X54546404Y-79126404D02*
X41860000Y-66440000D01*
X55546404Y-79126404D02*
X54546404Y-79126404D01*
X79310020Y-79126404D02*
X156376421Y-79126404D01*
X156376421Y-79126404D02*
X158360000Y-81109983D01*
%TO.N,Net-(SW1-Pad2)*%
X15710000Y-86090000D02*
X15710000Y-118990000D01*
X15760000Y-86040000D02*
X15710000Y-86090000D01*
%TO.N,Net-(SW2-Pad2)*%
X22760000Y-85840000D02*
X22710000Y-85890000D01*
X22710000Y-85890000D02*
X22710000Y-104990000D01*
%TO.N,Net-(SW3-Pad2)*%
X29760000Y-85840000D02*
X29760000Y-118840000D01*
X29760000Y-118840000D02*
X29710000Y-118890000D01*
%TO.N,Net-(SW4-Pad2)*%
X36660000Y-85740000D02*
X36660000Y-104940000D01*
X36660000Y-104940000D02*
X36710000Y-104990000D01*
%TO.N,Net-(SW5-Pad2)*%
X43360000Y-85840000D02*
X43360000Y-118640000D01*
X43360000Y-118640000D02*
X43710000Y-118990000D01*
%TO.N,Net-(SW6-Pad2)*%
X50660000Y-104840000D02*
X50710000Y-104890000D01*
X50660000Y-85840000D02*
X50660000Y-104840000D01*
%TO.N,Net-(SW7-Pad2)*%
X57710000Y-118890000D02*
X57710000Y-85990000D01*
X57710000Y-85990000D02*
X57660000Y-85940000D01*
%TO.N,Net-(SW8-Pad2)*%
X69960000Y-117140000D02*
X71710000Y-118890000D01*
X69960000Y-85440000D02*
X69960000Y-117140000D01*
%TO.N,Net-(SW9-Pad2)*%
X77360000Y-86540000D02*
X77360000Y-103840000D01*
X77360000Y-103840000D02*
X78710000Y-105190000D01*
%TO.N,Net-(SW10-Pad2)*%
X85660000Y-85940000D02*
X85660000Y-118940000D01*
X85660000Y-118940000D02*
X85710000Y-118990000D01*
%TO.N,Net-(SW11-Pad2)*%
X92660000Y-104940000D02*
X92710000Y-104990000D01*
X92660000Y-85840000D02*
X92660000Y-104940000D01*
%TO.N,/LED_DIN*%
X10260000Y-85940000D02*
X11760000Y-84440000D01*
X10260000Y-91940000D02*
X10260000Y-85940000D01*
%TO.N,/keys/I2C_SDA_1*%
X81555000Y-81235000D02*
X80660000Y-80340000D01*
X157560000Y-81235000D02*
X81555000Y-81235000D01*
X55160000Y-80340000D02*
X53260000Y-80340000D01*
X80660000Y-80340000D02*
X55160000Y-80340000D01*
X53260000Y-80340000D02*
X39360000Y-66440000D01*
%TO.N,Net-(SW12-Pad2)*%
X99660000Y-85840000D02*
X99660000Y-118940000D01*
X99660000Y-118940000D02*
X99710000Y-118990000D01*
%TO.N,Net-(SW13-Pad2)*%
X113760000Y-85940000D02*
X113760000Y-118940000D01*
X113760000Y-118940000D02*
X113710000Y-118990000D01*
%TO.N,Net-(SW22-Pad2)*%
X183760000Y-87365000D02*
X183760000Y-118940000D01*
X183760000Y-118940000D02*
X183710000Y-118990000D01*
%TO.N,Net-(SW23-Pad2)*%
X190660000Y-104840000D02*
X190710000Y-104890000D01*
X190660000Y-86740000D02*
X190660000Y-104840000D01*
%TO.N,Net-(SW24-Pad2)*%
X197760000Y-118940000D02*
X197710000Y-118990000D01*
X197760000Y-83940000D02*
X197760000Y-118940000D01*
%TO.N,Net-(U26-Pad18)*%
X120460000Y-85940000D02*
X120460000Y-104740000D01*
X120460000Y-104740000D02*
X120710000Y-104990000D01*
%TO.N,Net-(U26-Pad19)*%
X127710000Y-85890000D02*
X127710000Y-118990000D01*
X127760000Y-85840000D02*
X127710000Y-85890000D01*
%TO.N,Net-(U26-Pad20)*%
X134560000Y-85840000D02*
X134560000Y-104940000D01*
X134560000Y-104940000D02*
X134710000Y-105090000D01*
%TO.N,Net-(SW17-Pad2)*%
X141660000Y-87040000D02*
X141660000Y-118940000D01*
X141660000Y-118940000D02*
X141710000Y-118990000D01*
%TO.N,Net-(SW18-Pad2)*%
X148660000Y-104840000D02*
X148710000Y-104890000D01*
X148660000Y-87740000D02*
X148660000Y-104840000D01*
%TO.N,Net-(SW19-Pad2)*%
X158760000Y-87840000D02*
X155710000Y-90890000D01*
X155710000Y-90890000D02*
X155710000Y-118990000D01*
%TO.N,Net-(SW20-Pad2)*%
X160760000Y-87740000D02*
X162260000Y-89240000D01*
X166660000Y-89240000D02*
X169710000Y-92290000D01*
X162260000Y-89240000D02*
X166660000Y-89240000D01*
X169710000Y-92290000D02*
X169710000Y-118990000D01*
%TO.N,Net-(SW21-Pad2)*%
X176710000Y-92090000D02*
X176710000Y-104890000D01*
X162760000Y-87840000D02*
X172460000Y-87840000D01*
X172460000Y-87840000D02*
X176710000Y-92090000D01*
%TD*%
M02*
