M48
; DRILL file {KiCad 5.99.0-unknown-5db75805bd~106~ubuntu20.04.1} date Tue Jan  5 12:39:30 2021
; FORMAT={-:-/ absolute / inch / decimal}
; #@! TF.CreationDate,2021-01-05T12:39:30+10:00
; #@! TF.GenerationSoftware,Kicad,Pcbnew,5.99.0-unknown-5db75805bd~106~ubuntu20.04.1
; #@! TF.FileFunction,Plated,1,2,PTH
FMAT,2
INCH
T1C0.0118
T2C0.0469
%
G90
G05
T1
X0.1378Y-3.9567
X0.2756Y-3.4055
X0.4039Y-3.6197
X0.4411Y-0.8699
X0.4431Y0.51
X0.463Y-3.3244
X0.4709Y-3.5606
X0.4709Y-3.8559
X0.5709Y-2.5984
X0.5868Y-1.6376
X0.5868Y-1.9455
X0.5907Y-0.3187
X0.5907Y-0.614
X0.6185Y-4.6846
X0.6205Y-3.3874
X0.7187Y-0.0451
X0.7206Y-0.7597
X0.7465Y-3.5606
X0.7465Y-3.8559
X0.8663Y-0.3187
X0.8663Y-0.614
X0.8941Y-4.1335
X0.8961Y-3.3795
X0.9923Y-0.7351
X0.9943Y0.51
X1.0002Y-1.6376
X1.0002Y-1.9455
X1.022Y-3.5606
X1.022Y-3.8559
X1.1419Y-0.3187
X1.1419Y-0.614
X1.1697Y-4.6807
X1.1717Y-3.3795
X1.2699Y-0.0451
X1.2976Y-3.5606
X1.2976Y-3.8559
X1.3386Y-2.3031
X1.3583Y-2.5787
X1.4175Y-0.3187
X1.4175Y-0.614
X1.4433Y-3.3756
X1.4453Y-4.1335
X1.5455Y0.51
X1.5496Y-2.6157
X1.5514Y-1.6376
X1.5514Y-1.9455
X1.5732Y-3.5606
X1.5732Y-3.8559
X1.648Y-2.6157
X1.6813Y-0.9132
X1.6931Y-0.3187
X1.6931Y-0.614
X1.7071Y-3.3795
X1.7209Y-4.6846
X1.7285Y-0.8148
X1.8191Y-0.7164
X1.8488Y-3.5606
X1.8488Y-3.8559
X1.8978Y-0.7203
X1.9647Y-1.6376
X1.9647Y-1.9455
X1.9766Y-0.7164
X1.9923Y-0.9764
X1.9945Y-3.3795
X1.9965Y-4.1295
X2.0238Y-0.9764
X2.0966Y0.51
X2.1244Y-3.5606
X2.1244Y-3.8559
X2.2443Y-0.3187
X2.2443Y-0.614
X2.2543Y-2.6276
X2.2701Y-3.3835
X2.272Y-4.6807
X2.3722Y-0.0451
X2.3742Y-0.7203
X2.5159Y-1.6376
X2.5159Y-1.9455
X2.5199Y-0.3187
X2.5199Y-0.614
X2.6478Y0.51
X2.6498Y-0.7479
X2.6756Y-3.5606
X2.6756Y-3.8559
X2.7543Y-3.3638
X2.7955Y-0.3187
X2.7955Y-0.614
X2.8232Y-4.6807
X2.9134Y-3.3465
X2.9234Y-0.0372
X2.9293Y-0.7951
X2.9293Y-1.6376
X2.9293Y-1.9455
X2.9512Y-3.5606
X2.9512Y-3.8559
X3.0457Y-3.4071
X3.0496Y-3.0173
X3.071Y-0.3187
X3.071Y-0.614
X3.0988Y-4.1413
X3.1224Y-3.1152
X3.1756Y-3.163
X3.197Y-0.7951
X3.199Y0.51
X3.2268Y-3.5606
X3.2268Y-3.8559
X3.2878Y-3.0154
X3.3466Y-0.3187
X3.3466Y-0.614
X3.3724Y-3.3835
X3.3744Y-4.6846
X3.4746Y-0.0412
X3.4805Y-1.6376
X3.4805Y-1.9455
X3.4844Y-0.7912
X3.5024Y-3.5606
X3.5024Y-3.8559
X3.6222Y-0.3187
X3.6222Y-0.614
X3.648Y-3.3795
X3.65Y-4.1335
X3.7482Y-0.7912
X3.7502Y0.51
X3.778Y-3.5606
X3.778Y-3.8559
X3.8939Y-1.6376
X3.8939Y-1.9455
X3.8978Y-0.3187
X3.8978Y-0.614
X3.9236Y-3.3795
X3.9256Y-4.6846
X4.3014Y0.51
X4.3033Y-0.7951
X4.3291Y-3.5606
X4.3291Y-3.8559
X4.3331Y-2.2291
X4.3331Y-2.537
X4.449Y-0.3187
X4.449Y-0.614
X4.4768Y-4.6846
X4.4787Y-3.3835
X4.5769Y-0.0412
X4.5789Y-0.7951
X4.6047Y-3.5606
X4.6047Y-3.8559
X4.7246Y-0.3187
X4.7246Y-0.614
X4.7425Y-3.3835
X4.7465Y-2.2291
X4.7465Y-2.537
X4.7524Y-4.1335
X4.8525Y0.51
X4.8545Y-0.7912
X4.8803Y-3.5606
X4.8803Y-3.8559
X4.9392Y-1.1593
X5.0002Y-0.3187
X5.0002Y-0.614
X5.028Y-4.6846
X5.0299Y-3.3795
X5.0514Y-1.0116
X5.1045Y-1.0594
X5.1281Y-0.0333
X5.1559Y-3.5606
X5.1559Y-3.8559
X5.1773Y-1.1573
X5.1813Y-0.7675
X5.2758Y-0.3187
X5.2758Y-0.614
X5.2976Y-2.2291
X5.2976Y-2.537
X5.2976Y-3.3795
X5.3035Y-4.1374
X5.3136Y-0.8282
X5.4037Y0.5061
X5.4315Y-3.5606
X5.4315Y-3.8559
X5.4726Y-0.8108
X5.5514Y-0.3187
X5.5514Y-0.614
X5.5772Y-3.4268
X5.5791Y-4.6846
X5.7071Y-3.5606
X5.7071Y-3.8559
X5.711Y-2.2291
X5.711Y-2.537
X5.8528Y-3.4543
X5.8547Y-4.1295
X5.9549Y0.5061
X5.9569Y-0.7912
X5.9726Y-1.5471
X5.9827Y-3.5606
X5.9827Y-3.8559
X6.1025Y-0.3187
X6.1025Y-0.614
X6.1303Y-4.6846
X6.2031Y-3.1982
X6.2305Y-0.0451
X6.2325Y-0.7951
X6.2346Y-3.1982
X6.2504Y-3.4583
X6.2622Y-2.2291
X6.2622Y-2.537
X6.3291Y-3.4543
X6.3781Y-0.3187
X6.3781Y-0.614
X6.4079Y-3.4583
X6.4984Y-3.3598
X6.5061Y0.51
X6.5199Y-0.7951
X6.5339Y-3.5606
X6.5339Y-3.8559
X6.5457Y-3.2614
X6.5789Y-1.5589
X6.6537Y-0.3187
X6.6537Y-0.614
X6.6756Y-2.2291
X6.6756Y-2.537
X6.6773Y-1.5589
X6.6815Y-4.6846
X6.7817Y-0.0412
X6.7836Y-0.799
X6.8094Y-3.5606
X6.8094Y-3.8559
X6.8687Y-1.5959
X6.8884Y-1.8715
X6.9293Y-0.3187
X6.9293Y-0.614
X6.9571Y-4.1295
X7.0553Y-0.7951
X7.0573Y0.5061
X7.085Y-3.5606
X7.085Y-3.8559
X7.2049Y-0.3187
X7.2049Y-0.614
X7.2268Y-2.2291
X7.2268Y-2.537
X7.2327Y-4.6846
X7.2346Y-3.4396
X7.3309Y-0.7951
X7.3329Y-0.0412
X7.3606Y-3.5606
X7.3606Y-3.8559
X7.4805Y-0.3187
X7.4805Y-0.614
X7.5063Y-3.415
X7.5083Y-4.1295
X7.6065Y-0.7872
X7.6084Y0.51
X7.6362Y-3.5606
X7.6362Y-3.8559
X7.6402Y-2.2291
X7.6402Y-2.537
X7.6561Y-1.5762
X7.7561Y-0.3187
X7.7561Y-0.614
X7.764Y-0.8502
X7.7839Y-4.6846
X7.7858Y-3.3047
X7.823Y-0.5549
X7.9514Y-0.7691
X8.0892Y-0.2179
T2
X0.6496Y-2.3622
X0.7496Y-2.3622
X0.8496Y-2.3622
X0.9496Y-2.3622
X1.0496Y-2.3622
X1.4496Y-2.3622
X1.5496Y-2.3622
X1.6496Y-2.3622
X1.7496Y-2.3622
X1.8496Y-2.3622
X1.9496Y-2.3622
X6.2773Y-1.8124
X6.3773Y-1.8124
X6.4773Y-1.8124
X6.5773Y-1.8124
X6.6773Y-1.8124
X6.7773Y-1.8124
X7.1773Y-1.8124
X7.2773Y-1.8124
X7.3773Y-1.8124
X7.4773Y-1.8124
X7.5773Y-1.8124
T0
M30
